<?xml version="1.0" standalone="no"?>
<!DOCTYPE svg PUBLIC "-//W3C//DTD SVG 20010904//EN"
 "http://www.w3.org/TR/2001/REC-SVG-20010904/DTD/svg10.dtd">
<svg version="1.0" xmlns="http://www.w3.org/2000/svg"
 width="2500.000000pt" height="2500.000000pt" viewBox="0 0 2500.000000 2500.000000"
 preserveAspectRatio="xMidYMid meet">
<metadata>
Created by potrace 1.11, written by Peter Selinger 2001-2013
</metadata>
<g transform="translate(0.000000,2500.000000) scale(0.100000,-0.100000)"
fill="#000000" stroke="none">
<path d="M12250 24915 c-76 -26 -320 -113 -505 -180 -71 -25 -173 -61 -225
-80 -142 -49 -937 -332 -1000 -356 -30 -12 -100 -37 -155 -56 -88 -30 -203
-71 -630 -225 -60 -21 -114 -41 -120 -42 -5 -2 -17 -6 -25 -9 -8 -3 -46 -17
-85 -30 -66 -23 -339 -120 -470 -167 -33 -12 -127 -45 -210 -75 -377 -133
-891 -316 -905 -322 -8 -3 -19 -7 -25 -9 -5 -1 -59 -21 -120 -42 -60 -22 -258
-93 -440 -157 -181 -64 -339 -121 -350 -126 -19 -8 -318 -115 -550 -195 -55
-19 -109 -39 -120 -44 -11 -4 -119 -43 -240 -86 -309 -108 -634 -223 -675
-239 -19 -8 -240 -87 -490 -175 -250 -89 -543 -193 -650 -232 -107 -39 -244
-87 -305 -108 -60 -21 -173 -62 -250 -90 -77 -28 -147 -53 -155 -55 -18 -5
-291 -101 -340 -120 -38 -15 -152 -55 -295 -105 -49 -17 -99 -35 -110 -40 -11
-5 -96 -35 -190 -68 -93 -33 -235 -84 -315 -112 -80 -29 -163 -58 -185 -66
-22 -7 -71 -25 -110 -39 -38 -14 -108 -39 -155 -55 -47 -16 -123 -43 -170 -60
-47 -17 -128 -46 -180 -65 -52 -18 -140 -50 -195 -70 -55 -20 -127 -45 -160
-56 -33 -11 -69 -24 -80 -29 -11 -5 -72 -27 -135 -49 -63 -22 -130 -45 -148
-51 l-33 -12 5 -57 c3 -31 8 -65 10 -76 2 -11 7 -51 10 -90 4 -38 8 -81 10
-95 4 -24 11 -87 21 -183 3 -26 7 -60 9 -75 2 -15 7 -56 11 -92 4 -36 8 -76
10 -90 2 -14 6 -50 10 -80 3 -30 8 -71 10 -90 13 -101 17 -138 20 -170 4 -51
22 -204 30 -260 8 -53 14 -108 20 -175 3 -33 7 -69 9 -80 2 -11 7 -54 11 -95
4 -41 9 -84 11 -95 4 -21 8 -55 19 -165 4 -36 8 -76 10 -90 2 -14 6 -50 10
-80 15 -138 26 -230 30 -260 2 -14 7 -54 10 -90 3 -36 8 -72 10 -80 2 -8 7
-49 10 -90 4 -41 8 -82 10 -90 1 -8 6 -44 10 -80 4 -36 9 -78 11 -95 2 -16 6
-55 9 -85 4 -30 9 -73 11 -95 7 -51 10 -85 19 -160 3 -33 8 -73 10 -90 2 -16
7 -57 10 -90 4 -33 8 -72 11 -86 2 -14 6 -52 9 -85 3 -32 10 -95 16 -139 6
-44 12 -93 14 -110 1 -16 5 -57 9 -90 4 -33 9 -76 11 -95 3 -19 7 -60 10 -90
3 -30 8 -66 10 -80 4 -24 8 -64 20 -175 6 -59 15 -130 20 -165 2 -14 7 -56 10
-95 3 -38 8 -81 10 -95 6 -37 12 -86 35 -290 11 -102 23 -201 25 -220 10 -78
14 -118 21 -180 3 -36 7 -72 9 -80 2 -14 9 -71 21 -180 3 -25 7 -62 10 -82 11
-93 13 -116 19 -169 3 -31 7 -65 9 -75 2 -11 7 -53 11 -94 4 -41 9 -82 10 -90
2 -9 6 -46 9 -82 4 -37 8 -75 10 -85 2 -10 7 -49 10 -88 4 -38 9 -81 11 -95 2
-14 7 -52 10 -85 3 -33 8 -71 10 -85 2 -14 6 -52 10 -85 3 -33 8 -71 10 -85 2
-14 6 -56 10 -95 4 -38 8 -77 10 -85 1 -8 6 -46 9 -85 4 -38 9 -77 11 -85 2
-8 7 -45 10 -82 3 -37 7 -75 9 -85 2 -10 7 -49 10 -88 4 -38 9 -81 11 -95 2
-14 6 -50 10 -80 3 -30 9 -75 12 -100 3 -25 7 -58 8 -75 5 -44 19 -174 30
-255 2 -19 9 -80 15 -135 6 -55 13 -113 15 -130 2 -16 7 -57 10 -90 4 -33 8
-71 10 -85 2 -14 7 -56 11 -95 3 -38 8 -79 10 -90 2 -11 6 -47 9 -82 3 -34 7
-70 9 -80 2 -10 7 -47 11 -83 4 -36 9 -76 10 -90 2 -14 6 -54 10 -90 3 -36 8
-76 10 -90 3 -14 7 -52 10 -85 4 -33 8 -71 11 -85 2 -14 8 -72 14 -130 6 -58
13 -112 15 -120 2 -8 7 -49 10 -90 4 -41 8 -77 10 -80 1 -3 6 -41 10 -84 4
-43 8 -86 10 -95 1 -9 6 -47 10 -84 3 -37 8 -76 10 -85 1 -9 6 -48 9 -87 4
-38 9 -81 11 -95 2 -14 7 -52 10 -85 3 -33 8 -73 10 -90 2 -16 11 -93 20 -171
9 -77 17 -152 20 -165 2 -13 6 -55 10 -92 3 -37 8 -76 10 -85 1 -9 6 -48 9
-87 4 -38 9 -77 11 -85 2 -8 6 -46 10 -83 3 -37 8 -78 11 -90 2 -12 6 -49 9
-82 2 -33 6 -76 9 -95 4 -30 13 -106 31 -260 2 -19 7 -60 10 -90 3 -30 8 -66
10 -80 2 -14 7 -54 10 -90 4 -36 8 -76 10 -90 2 -14 7 -50 10 -80 3 -30 8 -73
11 -95 10 -87 15 -132 19 -165 3 -19 7 -62 10 -95 3 -33 7 -71 10 -85 2 -14 7
-50 10 -80 4 -30 8 -68 10 -85 7 -65 16 -142 20 -175 2 -19 7 -60 10 -90 3
-30 8 -71 10 -90 8 -61 14 -113 20 -165 3 -27 8 -68 10 -90 3 -22 7 -60 10
-85 2 -25 6 -54 9 -65 2 -11 7 -60 11 -109 3 -50 8 -92 9 -95 3 -5 8 -41 22
-183 2 -20 6 -49 8 -65 5 -27 10 -76 21 -178 3 -27 7 -61 10 -75 2 -14 7 -55
10 -92 3 -37 8 -77 10 -90 4 -25 13 -104 20 -183 3 -27 7 -66 10 -85 5 -40 11
-90 20 -170 4 -30 8 -66 10 -80 2 -14 7 -52 10 -85 3 -33 9 -87 13 -119 l7
-60 240 -134 c132 -73 272 -151 310 -171 93 -51 163 -90 200 -111 17 -10 53
-30 80 -45 44 -24 118 -65 275 -152 25 -14 74 -41 110 -61 36 -20 87 -48 113
-64 26 -15 49 -28 51 -28 6 0 200 -111 213 -122 7 -6 13 -7 13 -4 0 4 12 -1
27 -12 16 -10 60 -36 98 -57 39 -21 84 -46 100 -55 115 -64 155 -86 191 -106
23 -13 61 -34 85 -47 67 -36 152 -84 279 -155 63 -35 140 -78 170 -94 30 -17
73 -41 95 -53 22 -13 61 -35 88 -49 100 -55 148 -82 322 -179 99 -55 200 -111
225 -125 25 -13 164 -91 310 -172 146 -81 290 -161 320 -177 30 -17 73 -41 95
-53 22 -13 63 -35 90 -50 49 -27 180 -99 280 -155 28 -15 76 -43 108 -61 32
-19 60 -34 62 -34 2 0 70 -38 152 -84 82 -46 178 -99 214 -119 35 -19 199
-110 364 -202 165 -92 329 -183 365 -203 36 -19 152 -84 258 -144 107 -59 196
-108 199 -108 2 0 45 -24 96 -54 51 -30 119 -68 152 -86 75 -40 148 -81 245
-135 41 -23 102 -57 135 -75 217 -119 292 -161 305 -170 8 -6 22 -13 30 -17 8
-4 168 -92 355 -196 187 -104 369 -205 405 -225 36 -19 91 -50 123 -68 32 -19
60 -34 62 -34 2 0 26 -13 53 -29 27 -16 76 -44 108 -62 33 -18 73 -40 89 -49
17 -9 102 -56 190 -105 88 -48 174 -96 190 -105 17 -9 57 -32 90 -50 33 -18
94 -52 135 -75 77 -43 160 -89 240 -133 25 -13 59 -32 75 -42 30 -18 87 -49
180 -100 28 -15 66 -36 85 -47 185 -104 348 -193 354 -193 6 0 141 74 216 119
19 11 45 25 57 31 12 5 57 29 100 53 43 24 105 59 138 77 33 18 94 52 135 75
41 23 100 55 130 72 49 26 375 207 488 269 40 23 65 37 187 104 102 56 152 84
210 117 33 19 74 41 90 49 17 8 44 23 62 34 17 10 67 38 110 61 43 23 148 81
233 129 85 47 162 89 170 93 8 4 33 18 55 30 22 13 69 39 105 59 36 19 101 56
145 80 44 25 105 58 135 75 30 16 96 52 145 80 50 28 122 67 160 88 39 21 87
49 107 62 21 13 40 23 43 23 3 0 63 32 133 71 160 90 302 169 367 204 28 15
93 51 145 80 52 29 118 65 145 80 28 15 131 73 230 128 173 96 210 116 355
195 36 19 70 38 75 42 6 4 46 27 90 50 44 24 175 96 290 160 116 64 235 130
265 147 124 68 377 208 410 226 47 26 581 322 645 357 28 15 70 39 95 52 25
14 153 85 285 158 132 73 274 152 315 175 41 23 116 64 165 90 50 26 95 51
100 55 6 4 35 21 65 37 61 34 309 171 380 210 25 14 74 41 110 61 36 19 164
90 285 157 121 67 245 135 275 152 30 17 244 135 475 263 231 128 443 245 470
261 174 95 338 185 385 212 30 16 81 44 113 61 31 17 59 38 62 46 5 17 17 108
30 225 3 28 7 61 10 75 5 34 16 119 20 150 10 93 18 157 20 171 2 9 6 40 9 70
4 30 9 70 11 89 3 19 7 53 9 75 3 22 8 60 11 85 3 25 8 63 11 85 2 22 7 51 9
65 2 14 7 54 11 90 3 36 7 67 9 70 2 3 6 39 10 80 3 41 8 82 10 90 2 8 6 40
10 70 3 30 7 66 9 80 3 14 7 50 11 81 3 31 7 65 9 76 3 11 7 46 10 78 8 67 12
100 22 170 4 28 7 53 6 56 0 3 3 37 9 75 17 124 19 138 24 189 3 28 8 61 10
75 2 14 7 50 10 80 3 30 8 66 10 80 2 14 7 48 10 75 5 52 12 109 19 160 8 52
25 188 31 245 3 30 12 100 20 155 7 55 16 127 20 160 3 33 8 69 10 80 2 11 7
45 10 75 3 30 7 66 9 80 3 14 7 52 11 85 8 69 14 118 19 154 3 14 7 51 11 81
8 74 15 130 20 160 2 14 7 53 10 87 8 69 10 88 19 151 3 23 8 60 11 82 3 22 7
58 10 80 3 22 7 59 10 83 3 23 8 58 10 77 8 65 15 125 20 160 3 19 7 54 10 78
3 23 7 60 10 82 3 22 7 59 10 83 3 23 7 58 10 77 3 19 7 55 10 80 3 25 7 61
10 80 3 19 7 53 9 75 3 22 10 78 17 125 16 124 16 125 24 193 3 34 10 89 15
122 5 33 12 87 16 120 3 33 8 67 9 75 2 8 6 44 10 80 4 36 9 74 11 85 2 11 6
45 9 75 3 30 7 66 10 80 2 14 7 50 10 80 4 30 8 64 10 75 1 11 5 49 9 85 4 36
9 72 11 80 2 8 7 44 10 80 4 36 8 72 10 80 2 8 6 44 10 80 4 36 8 72 10 80 2
8 6 44 10 80 4 36 8 72 10 80 3 15 12 89 21 165 2 22 6 56 9 75 3 19 7 53 10
75 2 22 11 96 20 165 9 69 18 143 20 165 3 22 8 58 12 80 3 22 7 51 8 65 3 30
15 126 20 160 2 14 7 50 10 80 3 30 13 107 21 170 8 63 17 135 20 160 3 25 7
56 9 70 2 14 6 50 10 80 4 30 8 66 10 80 2 14 7 52 11 85 13 116 19 166 39
315 4 31 17 136 30 240 3 19 7 58 10 85 4 28 8 61 10 75 2 14 7 52 11 85 3 33
8 68 10 77 1 9 6 48 9 85 4 37 9 70 10 73 2 3 6 34 10 70 4 36 9 73 11 83 2
10 6 48 10 85 3 37 7 69 9 72 2 3 6 39 10 80 4 41 9 84 11 95 3 11 6 38 9 60
4 46 10 96 26 210 6 44 13 98 15 120 2 22 6 56 9 75 8 65 15 115 20 160 3 25
7 61 10 80 3 19 7 55 10 80 8 72 16 133 20 160 2 14 7 52 11 85 3 33 8 69 10
80 2 11 6 43 9 70 3 28 8 66 10 85 14 114 24 189 30 230 2 14 7 54 10 90 4 36
8 72 10 81 2 8 6 42 9 74 4 32 9 72 11 89 3 17 14 103 25 191 11 88 23 176 26
195 3 19 7 58 10 87 3 28 6 64 8 80 6 47 18 127 22 153 2 14 6 50 9 80 3 30 8
66 10 80 3 14 7 50 10 80 3 30 7 65 9 76 2 12 9 66 16 120 6 55 13 110 15 124
2 14 6 45 10 70 3 25 7 61 10 80 2 19 7 60 10 90 3 30 8 66 10 80 3 14 7 48
10 75 3 28 7 61 9 75 3 14 7 50 11 81 3 31 7 65 9 75 2 11 7 50 11 87 3 37 8
77 10 89 3 11 7 46 10 77 4 31 8 67 10 81 4 25 9 65 19 145 3 22 13 99 21 170
9 72 17 141 20 155 2 14 6 50 10 80 4 30 8 66 10 80 2 14 7 50 10 80 3 30 8
66 10 80 2 14 7 50 10 80 3 30 8 67 11 81 5 31 17 25 -211 102 -266 91 -336
114 -700 239 -192 66 -381 130 -420 143 -38 13 -230 78 -425 145 -195 67 -400
136 -455 155 -183 62 -928 316 -1045 356 -63 22 -167 57 -230 78 -375 127
-507 172 -525 180 -11 5 -40 15 -65 22 -25 7 -50 16 -55 20 -6 4 -22 10 -35
13 -19 4 -443 147 -560 189 -8 3 -77 26 -153 52 -76 25 -289 98 -475 161 -185
63 -382 130 -437 149 -111 37 -791 270 -815 278 -8 3 -44 15 -80 27 -36 12
-74 25 -85 30 -11 5 -29 11 -40 13 -18 5 -637 216 -675 231 -14 5 -355 121
-595 201 -55 19 -179 61 -275 94 -188 64 -540 184 -840 286 -102 35 -372 127
-600 205 -228 78 -419 143 -425 144 -5 2 -17 6 -25 9 -8 3 -103 36 -210 72
-107 37 -301 102 -430 147 -129 44 -273 92 -320 108 -47 16 -216 73 -375 128
l-290 99 -65 -22z"/>
</g>
</svg>
